<?xml version="1.0" encoding="utf-8"?>
<!-- Generator: Adobe Illustrator 25.2.0, SVG Export Plug-In . SVG Version: 6.00 Build 0)  -->
<svg version="1.1" id="Layer_1" xmlns="http://www.w3.org/2000/svg" xmlns:xlink="http://www.w3.org/1999/xlink" x="0px" y="0px"
	 viewBox="0 0 24 24" style="enable-background:new 0 0 24 24;" xml:space="preserve">
<style type="text/css">
	.st0{fill:#FFFFFF;fill-opacity:0;}
	.st1{fill:#F5B99F;}
</style>
<g id="Layer_2_1_">
	<g id="paper-plane">
		<g id="paper-plane-2">
			<rect class="st0" width="24" height="24"/>
			<path class="st1" d="M21,4c0-0.1,0-0.2-0.1-0.3V3.6c0-0.1-0.1-0.2-0.2-0.3c-0.1-0.1-0.2-0.1-0.3-0.2h-0.1C20.3,3.1,20.2,3,20,3h0
				c-0.1,0-0.2,0-0.3,0l-18,6c-0.5,0.2-0.8,0.7-0.6,1.3c0.1,0.3,0.3,0.5,0.6,0.6l8.5,2.8l2.8,8.5c0.2,0.5,0.7,0.8,1.3,0.6
				c0.3-0.1,0.5-0.3,0.6-0.6l6-18C21,4.2,21,4.1,21,4z M16.3,6.3l-5.6,5.6L5.2,10L16.3,6.3z M14,18.8l-1.9-5.6l5.6-5.6L14,18.8z"/>
		</g>
	</g>
</g>
</svg>
